<svg width="114" height="80" viewBox="0 0 114 80" fill="none" xmlns="http://www.w3.org/2000/svg">
<path d="M23.8052 30.9999C23.8052 40.9411 31.864 48.9999 41.8052 48.9999L68.8052 48.9999C71.5666 48.9999 73.8052 46.7614 73.8052 43.9999L73.8052 9.99994C73.8052 4.47709 69.328 -6.12002e-05 63.8052 -6.07174e-05L28.8052 -5.76576e-05C26.0437 -5.74162e-05 23.8052 2.23852 23.8052 4.99994L23.8052 30.9999Z" fill="#FFF1DA"/>
<path d="M72.3891 44.9413C71.0307 45.2456 69.7077 45.8091 68.5022 46.5965C65.3614 48.5978 63.5341 51.4546 64.421 52.9767C65.308 54.4988 68.5731 54.1095 71.7138 52.1082C72.9356 51.3486 74.021 50.3779 74.9032 49.2559C75.3125 48.7138 75.386 48.0383 75.0908 47.5334L73.9386 45.556C73.6454 45.0495 73.0374 44.8086 72.3891 44.9413Z" fill="#D5D6DB"/>
<path d="M64.5021 17.9482C63.5171 18.169 62.5577 18.5778 61.6834 19.1488C59.4066 20.5996 58.0808 22.671 58.7234 23.7738C59.366 24.8766 61.7345 24.5941 64.0111 23.1434C64.897 22.5923 65.6839 21.8881 66.3237 21.0744C66.6202 20.6815 66.6733 20.1922 66.4593 19.8261L65.6251 18.3943C65.4128 18.0271 64.9722 17.8521 64.5021 17.9482Z" fill="#D5D6DB"/>
<path d="M51.688 19.0787C51.4687 19.0542 51.2349 19.1126 51.0322 19.2421L45.684 22.6503C45.2366 22.9346 45.0576 23.4819 45.2845 23.8731C45.3364 23.9627 45.4075 24.0393 45.4937 24.0983L58.6753 33.1832L76.5088 21.8185L51.688 19.0787Z" fill="#029BC5"/>
<path d="M108.065 17.794L59.5329 48.3461L30.8201 59.7716L16.177 62.6823L14.566 59.9451L95.4612 9.99845C97.872 8.50357 100.558 7.58602 103.246 7.33893C104.424 7.23704 105.587 7.2762 106.708 7.45499C107.702 7.6057 108.645 7.89641 109.508 8.3185C110.472 8.79674 112.307 8.85189 112.901 9.80471C112.903 9.80318 114.305 14.1776 108.065 17.794Z" fill="#E1E6E9"/>
<path d="M60.1762 44.3036L39.1809 77.7735C38.9187 78.2437 39.0744 78.7702 39.5283 78.9494C39.8068 79.0595 40.1477 79.016 40.4341 78.834L45.7781 75.4438C46.806 74.7915 47.7161 73.9629 48.4523 73.0093L89.1686 25.1404L60.1762 44.3036Z" fill="#029BC5"/>
<path d="M7.19662 43.1861C6.8464 43.0664 6.42961 43.1285 6.07778 43.3525L1.66029 46.1659C1.05837 46.549 0.818522 47.2854 1.12438 47.8111C1.18266 47.911 1.25836 47.999 1.3491 48.0714L13.7259 57.9838L26.7389 49.8557L7.19662 43.1861Z" fill="#029BC5"/>
<path d="M17.8743 59.7707L11.2128 69.1002C11.1152 69.2343 11.1381 69.4026 11.2641 69.4759C11.3549 69.5288 11.4789 69.5192 11.5797 69.4517L15.708 66.8357C15.74 66.8154 15.7691 66.7899 15.7931 66.7609L25.5266 54.9261L17.8743 59.7707Z" fill="#029BC5"/>
<path d="M105.911 7.85723C104.757 7.6718 103.559 7.6322 102.346 7.73881C101.165 9.38989 100.411 11.2446 100.157 13.118C100.139 13.4943 100.442 13.7652 100.835 13.723C100.957 13.7098 101.079 13.6669 101.188 13.5981L108.796 8.75382C107.906 8.31521 106.935 8.01337 105.911 7.85723Z" fill="#029BC5"/>
<path d="M89.3322 16.7653L94.2992 13.6284L98.9258 21.4974L93.9588 24.6343L89.3322 16.7653Z" fill="#D5D6DB"/>
</svg>