<svg width="35" height="30" viewBox="-20 0 70 30" fill="none" xmlns="http://www.w3.org/2000/svg">
<path d="M34.7686 15.0001C34.7686 16.3827 33.9754 17.5712 32.698 18.1008L4.6457 29.7413C3.48883 30.2213 2.14901 30.033 1.16123 29.1784C0.194163 28.3411 -0.210565 27.0501 0.105883 25.8107L2.60291 16.0187L2.86231 15.0001L2.60291 13.9814L0.105883 4.18947C-0.210565 2.95009 0.194163 1.6591 1.16123 0.821802C2.11764 -0.00564941 3.45154 -0.236602 4.6457 0.25885L32.698 11.8993C33.9754 12.429 34.7686 13.6175 34.7686 15.0001Z" fill="white"/>
<path d="M2.60297 16.0187L0.105883 25.8107C-0.210565 27.05 0.194163 28.341 1.16123 29.1783C2.14901 30.033 3.48883 30.2213 4.6457 29.7413L32.698 18.1008C33.9754 17.5711 34.7686 16.3827 34.7686 15L2.86238 15L2.60297 16.0187Z" fill="white"/>
<path d="M15.8462 15.0001C15.8462 15.5624 15.3905 16.0188 14.8275 16.0188H2.60303L2.86243 15.0001L2.60303 13.9814H14.8275C15.3905 13.9815 15.8462 14.4379 15.8462 15.0001Z" fill="url(#paint0_linear)"/>
<path d="M2.60303 16.0187H14.8275C15.3905 16.0187 15.8462 15.5623 15.8462 15H2.86243L2.60303 16.0187Z" fill="url(#paint1_linear)"/>
<defs>
<linearGradient id="paint0_linear" x1="11.9956" y1="14.0386" x2="11.8403" y2="16.5828" gradientUnits="userSpaceOnUse">
<stop stop-color="#747DEF"/>
<stop offset="1" stop-color="#5E3BE1"/>
</linearGradient>
<linearGradient id="paint1_linear" x1="11.9956" y1="15.0286" x2="11.9567" y2="16.3042" gradientUnits="userSpaceOnUse">
<stop stop-color="#747DEF"/>
<stop offset="1" stop-color="#5E3BE1"/>
</linearGradient>
</defs>
</svg>
